<svg width="80" height="80" viewBox="0 0 80 80" fill="none" xmlns="http://www.w3.org/2000/svg">
<path d="M34.4551 57.7396L65.4792 26.7155L63.7387 24.9749L34.4551 54.2585L19.3254 39.1287L17.5848 40.8693L34.4551 57.7396Z" fill="#0DBD14"/>
<path fill-rule="evenodd" clip-rule="evenodd" d="M80 40C80 62.0914 62.0914 80 40 80C17.9086 80 0 62.0914 0 40C0 17.9086 17.9086 0 40 0C62.0914 0 80 17.9086 80 40ZM78.7692 40C78.7692 61.4117 61.4117 78.7692 40 78.7692C18.5883 78.7692 1.23077 61.4117 1.23077 40C1.23077 18.5883 18.5883 1.23077 40 1.23077C61.4117 1.23077 78.7692 18.5883 78.7692 40Z" fill="#0DBD14"/>
</svg>
