<svg width="16" height="16" viewBox="0 0 16 16" fill="none" xmlns="http://www.w3.org/2000/svg">
<path fill-rule="evenodd" clip-rule="evenodd" d="M6.33439 8.0988C6.64735 8.0988 6.90105 8.3525 6.90105 8.66546V13.9988C6.90105 14.3118 6.64735 14.5655 6.33439 14.5655C6.02143 14.5655 5.76772 14.3118 5.76772 13.9988V8.66546C5.76772 8.3525 6.02143 8.0988 6.33439 8.0988Z" fill="#161617"/>
<path fill-rule="evenodd" clip-rule="evenodd" d="M13.0011 4.76748C13.314 4.76748 13.5677 5.02119 13.5677 5.33415V14.0008C13.5677 14.3138 13.314 14.5675 13.0011 14.5675C12.6881 14.5675 12.4344 14.3138 12.4344 14.0008V5.33415C12.4344 5.02119 12.6881 4.76748 13.0011 4.76748Z" fill="#161617"/>
<path fill-rule="evenodd" clip-rule="evenodd" d="M9.66772 1.43311C9.98068 1.43311 10.2344 1.68681 10.2344 1.99977V13.9998C10.2344 14.3127 9.98068 14.5664 9.66772 14.5664C9.35476 14.5664 9.10105 14.3127 9.10105 13.9998V1.99977C9.10105 1.68681 9.35476 1.43311 9.66772 1.43311Z" fill="#161617"/>
<path fill-rule="evenodd" clip-rule="evenodd" d="M3.00105 4.76748C3.31402 4.76748 3.56772 5.02119 3.56772 5.33415V14.0008C3.56772 14.3138 3.31402 14.5675 3.00105 14.5675C2.68809 14.5675 2.43439 14.3138 2.43439 14.0008V5.33415C2.43439 5.02119 2.68809 4.76748 3.00105 4.76748Z" fill="#161617"/>
</svg>
