<svg width="160" height="160" viewBox="0 0 160 160" fill="none" xmlns="http://www.w3.org/2000/svg">
<path d="M106.672 13.3335V53.3335H146.672" stroke="#3300FF" stroke-width="6" stroke-linecap="round" stroke-linejoin="round"/>
<path d="M153.339 6.6665L106.672 53.3332" stroke="#3300FF" stroke-width="6" stroke-linecap="round" stroke-linejoin="round"/>
<path d="M146.666 112.8V132.8C146.673 134.657 146.293 136.494 145.549 138.195C144.805 139.897 143.714 141.424 142.346 142.679C140.978 143.934 139.363 144.89 137.604 145.485C135.845 146.079 133.981 146.3 132.132 146.133C111.618 143.904 91.9122 136.894 74.5989 125.667C58.4911 115.431 44.8345 101.774 34.5989 85.6665C23.3321 68.2745 16.3205 48.4731 14.1322 27.8665C13.9656 26.0229 14.1847 24.1649 14.7756 22.4107C15.3664 20.6564 16.316 19.0444 17.564 17.6773C18.812 16.3102 20.3309 15.2179 22.0242 14.47C23.7174 13.7221 25.5478 13.3349 27.3989 13.3332H47.3989C50.6343 13.3013 53.7708 14.447 56.224 16.5567C58.6771 18.6664 60.2794 21.5961 60.7322 24.7998C61.5764 31.2003 63.1419 37.4847 65.3989 43.5332C66.2959 45.9193 66.49 48.5126 65.9583 51.0057C65.4266 53.4988 64.1913 55.7872 62.3989 57.5998L53.9322 66.0665C63.4226 82.7568 77.2419 96.5761 93.9322 106.066L102.399 97.5998C104.211 95.8074 106.5 94.5722 108.993 94.0405C111.486 93.5088 114.079 93.7029 116.466 94.5998C122.514 96.8568 128.798 98.4223 135.199 99.2665C138.437 99.7234 141.395 101.355 143.509 103.85C145.623 106.345 146.747 109.53 146.666 112.8Z" stroke="#3300FF" stroke-width="6" stroke-linecap="round" stroke-linejoin="round"/>
</svg>
