<svg width="80" height="80" viewBox="0 0 80 80" fill="none" xmlns="http://www.w3.org/2000/svg">
<path d="M55.7452 22.5144L40.0001 38.2595L24.255 22.5144L22.5144 24.255L38.2595 40.0001L22.5144 55.7452L24.255 57.4858L40.0001 41.7407L55.7452 57.4858L57.4858 55.7452L41.7407 40.0001L57.4858 24.255L55.7452 22.5144Z" fill="#DB4141"/>
<path fill-rule="evenodd" clip-rule="evenodd" d="M80 40C80 62.0914 62.0914 80 40 80C17.9086 80 0 62.0914 0 40C0 17.9086 17.9086 0 40 0C62.0914 0 80 17.9086 80 40ZM78.7692 40C78.7692 61.4117 61.4117 78.7692 40 78.7692C18.5883 78.7692 1.23077 61.4117 1.23077 40C1.23077 18.5883 18.5883 1.23077 40 1.23077C61.4117 1.23077 78.7692 18.5883 78.7692 40Z" fill="#DB4141"/>
</svg>
