<svg width="17" height="16" viewBox="0 0 17 16" fill="none" xmlns="http://www.w3.org/2000/svg">
<path fill-rule="evenodd" clip-rule="evenodd" d="M9.83464 9.3335H11.168C11.536 9.3335 11.8346 9.63216 11.8346 10.0002V12.6668C11.8346 13.0348 11.536 13.3335 11.168 13.3335H9.83464C9.46664 13.3335 9.16797 13.0348 9.16797 12.6668V10.0002C9.16797 9.63216 9.46664 9.3335 9.83464 9.3335Z" stroke="white" stroke-width="1.5" stroke-linecap="round" stroke-linejoin="round"/>
<path d="M14.4987 11.3333H11.832" stroke="white" stroke-width="1.5" stroke-linecap="round" stroke-linejoin="round"/>
<path d="M9.16667 11.3333H2.5" stroke="white" stroke-width="1.5" stroke-linecap="round" stroke-linejoin="round"/>
<path fill-rule="evenodd" clip-rule="evenodd" d="M7.16797 6.6665H5.83464C5.46664 6.6665 5.16797 6.36784 5.16797 5.99984V3.33317C5.16797 2.96517 5.46664 2.6665 5.83464 2.6665H7.16797C7.53597 2.6665 7.83464 2.96517 7.83464 3.33317V5.99984C7.83464 6.36784 7.53597 6.6665 7.16797 6.6665Z" stroke="white" stroke-width="1.5" stroke-linecap="round" stroke-linejoin="round"/>
<path d="M2.5 4.66634H5.16667" stroke="white" stroke-width="1.5" stroke-linecap="round" stroke-linejoin="round"/>
<path d="M7.83203 4.66634H14.4987" stroke="white" stroke-width="1.5" stroke-linecap="round" stroke-linejoin="round"/>
</svg>
